<svg width="1103" height="167" viewBox="0 0 1103 167" fill="none" xmlns="http://www.w3.org/2000/svg">
  <path d="M384 48H480L432 0L384 48Z" fill="#FF6EB7" />
  <path d="M288 48H384L336 0L288 48Z" fill="#FF6EB7" />
  <path d="M480 48H576L528 0L480 48Z" fill="#FF6EB7" />
  <path d="M0 48H96L48 0L0 48Z" fill="#FF6EB7" />
  <path d="M192 48H288L240 0L192 48Z" fill="#FF6EB7" />
  <path d="M96 48H192L144 0L96 48Z" fill="#FF6EB7" />
  <path d="M576 48H672L624 0L576 48Z" fill="#FF6EB7" />
  <path d="M1056 48H1152L1104 0L1056 48Z" fill="#FF6EB7" />
  <path d="M864 48H960L912 0L864 48Z" fill="#FF6EB7" />
  <path d="M960 48H1056L1008 0L960 48Z" fill="#FF6EB7" />
  <path d="M768 48H864L816 0L768 48Z" fill="#FF6EB7" />
  <path d="M672 48H768L720 0L672 48Z" fill="#FF6EB7" />
  <rect y="48" width="1441" height="119" fill="#FF6EB7" />
</svg>